<svg version="1.1" id="Layer_1" xmlns="http://www.w3.org/2000/svg" xmlns:xlink="http://www.w3.org/1999/xlink" x="0px" y="0px"
	 width="100%" viewBox="0 0 512 512" enable-background="new 0 0 512 512" xml:space="preserve">
<path fill="#F280FF" opacity="1.000000" stroke="none" 
	d="
M0.999997,289.000000 
	C1.000000,267.979095 1.000000,246.958206 1.348039,225.798187 
	C2.129030,224.821365 2.804611,224.025436 2.957096,223.139481 
	C4.357385,215.003555 5.242017,206.754745 7.080440,198.722748 
	C13.306608,171.520782 23.710018,145.911697 38.432304,122.229515 
	C52.611515,99.420929 70.141632,79.403328 90.539574,61.828697 
	C104.599754,49.714600 119.738281,39.209404 136.058578,30.569273 
	C163.347290,16.122358 192.227188,6.312049 223.097168,2.921131 
	C223.793381,2.844657 224.368439,1.665041 225.000000,1.000000 
	C246.020889,1.000000 267.041779,1.000000 288.201904,1.348078 
	C289.179047,2.129075 289.971832,2.771496 290.861786,2.963551 
	C304.729858,5.956361 318.753601,8.349953 332.452637,11.973579 
	C350.248016,16.680750 366.920319,24.322556 382.962524,33.404728 
	C399.257477,42.630013 414.725311,53.110489 428.197876,66.013763 
	C439.828827,77.153252 450.699615,89.206924 460.935852,101.654640 
	C477.252716,121.496704 489.055786,144.131729 497.862610,168.167374 
	C504.359863,185.899734 509.417053,204.123337 511.081757,223.098709 
	C511.141815,223.783295 512.334900,224.368484 513.000000,225.000000 
	C513.000000,229.024551 513.000000,233.049088 512.696411,237.398727 
	C510.943054,236.351791 509.459503,235.013458 508.048279,233.602798 
	C474.707397,200.274872 441.384399,166.929001 408.005707,133.638947 
	C406.544708,132.181824 404.586823,131.222900 402.899078,130.013977 
	C402.937775,129.996017 402.982788,130.068542 402.926636,129.729309 
	C402.400452,128.924576 401.930420,128.459076 401.218201,127.797714 
	C393.086670,116.557076 382.339539,111.833611 368.802765,111.875160 
	C310.305084,112.054756 251.806564,111.941093 193.308350,111.958229 
	C170.885315,111.964798 155.988708,126.798042 155.967865,149.165649 
	C155.934479,184.997864 155.963928,220.830109 155.942551,256.662354 
	C155.941269,258.818359 155.726395,260.974274 155.291809,263.055420 
	C148.643509,256.992920 142.314285,251.005234 135.528931,244.990448 
	C116.862411,242.978180 106.324936,256.637695 106.814423,272.269623 
	C107.526474,295.009369 107.229599,317.791412 106.894676,340.548523 
	C106.737770,351.209442 110.054047,359.673828 119.116089,365.958588 
	C119.507835,366.478333 119.783180,366.734772 120.026733,366.989563 
	C119.994949,366.987915 120.015694,366.927704 120.152451,367.234863 
	C126.880219,374.221649 133.420959,380.952118 140.089874,387.553070 
	C142.387451,389.827301 145.004684,391.778595 147.596451,394.327576 
	C147.803543,396.993805 147.890121,399.209808 148.062759,401.735260 
	C149.436386,403.545837 150.631378,405.139496 152.025070,406.534668 
	C186.010345,440.555267 220.019531,474.552002 254.009689,508.567719 
	C255.412933,509.972076 256.673157,511.519318 258.000000,513.000000 
	C247.312439,513.000000 236.624878,513.000000 225.798035,512.652710 
	C224.821396,511.871918 224.029404,511.228912 223.139908,511.036346 
	C209.121552,508.001923 194.937775,505.596558 181.100845,501.892914 
	C163.321350,497.134033 146.686737,489.404480 130.638351,480.325104 
	C114.768608,471.346771 99.667816,461.190216 86.524200,448.684143 
	C74.494957,437.238373 63.214218,424.856323 52.732018,411.969055 
	C36.644466,392.190308 24.760315,369.766388 16.130732,345.817841 
	C9.732025,328.060364 4.481713,309.895355 2.917686,290.901520 
	C2.861542,290.219666 1.665032,289.631714 0.999997,289.000000 
z"/>
<path fill="#C252FF" opacity="1.000000" stroke="none" 
	d="
M135.985046,245.017563 
	C142.314285,251.005234 148.643509,256.992920 155.374847,263.507507 
	C155.822342,272.027405 155.885742,280.020325 155.909683,288.013397 
	C155.979233,311.238251 170.764450,325.949890 194.121735,325.963226 
	C226.100311,325.981506 258.079254,326.039093 290.057098,325.883942 
	C294.353180,325.863129 297.460663,326.948456 300.537872,330.106232 
	C314.020599,343.942047 327.782776,357.505615 341.457123,371.154388 
	C342.693054,372.388000 344.025726,373.524719 346.315826,375.626282 
	C346.315826,358.366119 346.315826,342.354523 346.315826,325.967865 
	C354.321869,325.967865 361.631866,325.978729 368.941803,325.965881 
	C392.097137,325.925232 406.986969,311.000458 406.995087,287.775635 
	C407.010651,243.305420 406.920441,198.834930 407.069794,154.365204 
	C407.098114,145.929977 406.454163,137.766312 402.860382,130.031921 
	C404.586823,131.222900 406.544708,132.181824 408.005707,133.638947 
	C441.384399,166.929001 474.707397,200.274872 508.048279,233.602798 
	C509.459503,235.013458 510.943054,236.351791 512.696411,237.861908 
	C513.000000,254.687561 513.000000,271.375122 512.642456,288.216980 
	C511.862640,289.216644 511.241699,290.019012 511.047974,290.913910 
	C508.043152,304.793518 505.617981,318.823364 502.001007,332.539551 
	C497.295929,350.381989 489.622009,367.077637 480.500854,383.149170 
	C471.490143,399.026001 461.363708,414.190857 448.832458,427.353058 
	C437.269073,439.498688 424.843140,450.995911 411.754150,461.476196 
	C391.732117,477.507843 369.248260,489.544464 344.971558,498.059845 
	C327.254761,504.274292 309.320251,509.568878 290.476227,511.110931 
	C289.936249,511.155090 289.489960,512.344543 289.000000,513.000000 
	C278.979095,513.000000 268.958221,513.000000 258.468658,513.000000 
	C256.673157,511.519318 255.412933,509.972076 254.009689,508.567719 
	C220.019531,474.552002 186.010345,440.555267 152.025070,406.534668 
	C150.631378,405.139496 149.436386,403.545837 148.365417,401.543701 
	C158.140213,391.515472 167.796722,382.083679 177.194229,372.400513 
	C179.871002,369.642395 182.627853,368.650757 186.398895,368.677399 
	C207.558289,368.827118 228.719757,368.831573 249.879623,368.717926 
	C263.830841,368.642975 274.250183,359.139832 274.573151,345.965088 
	C272.607452,345.965088 270.643402,345.965393 268.679352,345.964996 
	C242.686996,345.959747 216.692337,346.169464 190.702866,345.892761 
	C160.608688,345.572388 136.408676,321.420380 135.987625,291.502045 
	C135.769623,276.010284 135.972382,260.512573 135.985046,245.017563 
z"/>
<path fill="#000000" opacity="1.000000" stroke="none" 
	d="
M513.000000,224.531342 
	C512.334900,224.368484 511.141815,223.783295 511.081757,223.098709 
	C509.417053,204.123337 504.359863,185.899734 497.862610,168.167374 
	C489.055786,144.131729 477.252716,121.496704 460.935852,101.654640 
	C450.699615,89.206924 439.828827,77.153252 428.197876,66.013763 
	C414.725311,53.110489 399.257477,42.630013 382.962524,33.404728 
	C366.920319,24.322556 350.248016,16.680750 332.452637,11.973579 
	C318.753601,8.349953 304.729858,5.956361 290.861786,2.963551 
	C289.971832,2.771496 289.179047,2.129075 288.670532,1.348078 
	C363.593719,1.000000 438.187408,1.000000 513.000000,1.000000 
	C513.000000,75.354088 513.000000,149.708389 513.000000,224.531342 
z"/>
<path fill="#000000" opacity="1.000000" stroke="none" 
	d="
M0.999997,289.468658 
	C1.665032,289.631714 2.861542,290.219666 2.917686,290.901520 
	C4.481713,309.895355 9.732025,328.060364 16.130732,345.817841 
	C24.760315,369.766388 36.644466,392.190308 52.732018,411.969055 
	C63.214218,424.856323 74.494957,437.238373 86.524200,448.684143 
	C99.667816,461.190216 114.768608,471.346771 130.638351,480.325104 
	C146.686737,489.404480 163.321350,497.134033 181.100845,501.892914 
	C194.937775,505.596558 209.121552,508.001923 223.139908,511.036346 
	C224.029404,511.228912 224.821396,511.871918 225.329376,512.652710 
	C150.406296,513.000000 75.812599,513.000000 1.000000,513.000000 
	C1.000000,438.645905 1.000000,364.291626 0.999997,289.468658 
z"/>
<path fill="#000000" opacity="1.000000" stroke="none" 
	d="
M224.531342,1.000000 
	C224.368439,1.665041 223.793381,2.844657 223.097168,2.921131 
	C192.227188,6.312049 163.347290,16.122358 136.058578,30.569273 
	C119.738281,39.209404 104.599754,49.714600 90.539574,61.828697 
	C70.141632,79.403328 52.611515,99.420929 38.432304,122.229515 
	C23.710018,145.911697 13.306608,171.520782 7.080440,198.722748 
	C5.242017,206.754745 4.357385,215.003555 2.957096,223.139481 
	C2.804611,224.025436 2.129030,224.821365 1.348039,225.329529 
	C1.000000,150.406296 1.000000,75.812576 1.000000,1.000000 
	C75.354088,1.000000 149.708389,1.000000 224.531342,1.000000 
z"/>
<path fill="#000000" opacity="1.000000" stroke="none" 
	d="
M289.468658,513.000000 
	C289.489960,512.344543 289.936249,511.155090 290.476227,511.110931 
	C309.320251,509.568878 327.254761,504.274292 344.971558,498.059845 
	C369.248260,489.544464 391.732117,477.507843 411.754150,461.476196 
	C424.843140,450.995911 437.269073,439.498688 448.832458,427.353058 
	C461.363708,414.190857 471.490143,399.026001 480.500854,383.149170 
	C489.622009,367.077637 497.295929,350.381989 502.001007,332.539551 
	C505.617981,318.823364 508.043152,304.793518 511.047974,290.913910 
	C511.241699,290.019012 511.862640,289.216644 512.642456,288.685608 
	C513.000000,363.593719 513.000000,438.187408 513.000000,513.000000 
	C438.645905,513.000000 364.291626,513.000000 289.468658,513.000000 
z"/>
<path fill="#FFFEFF" opacity="1.000000" stroke="none" 
	d="
M402.899078,130.013977 
	C406.454163,137.766312 407.098114,145.929977 407.069794,154.365204 
	C406.920441,198.834930 407.010651,243.305420 406.995087,287.775635 
	C406.986969,311.000458 392.097137,325.925232 368.941803,325.965881 
	C361.631866,325.978729 354.321869,325.967865 346.315826,325.967865 
	C346.315826,342.354523 346.315826,358.366119 346.315826,375.626282 
	C344.025726,373.524719 342.693054,372.388000 341.457123,371.154388 
	C327.782776,357.505615 314.020599,343.942047 300.537872,330.106232 
	C297.460663,326.948456 294.353180,325.863129 290.057098,325.883942 
	C258.079254,326.039093 226.100311,325.981506 194.121735,325.963226 
	C170.764450,325.949890 155.979233,311.238251 155.909683,288.013397 
	C155.885742,280.020325 155.822342,272.027405 155.693939,263.582306 
	C155.726395,260.974274 155.941269,258.818359 155.942551,256.662354 
	C155.963928,220.830109 155.934479,184.997864 155.967865,149.165649 
	C155.988708,126.798042 170.885315,111.964798 193.308350,111.958229 
	C251.806564,111.941093 310.305084,112.054756 368.802765,111.875160 
	C382.339539,111.833611 393.086670,116.557076 401.370239,128.092987 
	C402.170563,129.078934 402.576691,129.573746 402.982788,130.068542 
	C402.982788,130.068542 402.937775,129.996017 402.899078,130.013977 
M274.500031,155.368042 
	C259.517090,155.368942 244.533813,155.314026 229.551285,155.394058 
	C221.955154,155.434616 217.174835,159.490143 217.213074,165.552689 
	C217.251236,171.608643 222.026978,175.507278 229.639023,175.693359 
	C230.138184,175.705566 230.637848,175.697876 231.137283,175.697876 
	C264.599182,175.697998 298.061096,175.704651 331.523010,175.693588 
	C340.593933,175.690582 345.396942,172.254135 345.567322,165.721542 
	C345.741638,159.037933 340.805054,155.387115 331.436401,155.375122 
	C312.790985,155.351273 294.145508,155.368546 274.500031,155.368042 
M292.500000,262.103607 
	C271.500397,262.103851 250.500763,262.078766 229.501236,262.117950 
	C222.035263,262.131897 217.091324,266.325745 217.240997,272.327301 
	C217.390961,278.339417 221.954239,282.081970 229.305695,282.102478 
	C241.638687,282.136871 253.971863,282.112823 266.304962,282.112549 
	C288.971191,282.112030 311.637512,282.138947 334.303650,282.092377 
	C340.816437,282.078979 344.886017,278.654144 345.415527,273.025757 
	C346.005341,266.756348 341.339935,262.179230 333.999084,262.131470 
	C320.499878,262.043610 306.999756,262.104736 292.500000,262.103607 
M290.500000,228.935394 
	C304.331879,228.935287 318.163788,228.941727 331.995667,228.932663 
	C340.633545,228.927002 345.406647,225.412628 345.501801,219.020386 
	C345.597717,212.576447 340.855927,208.936569 332.305115,208.933014 
	C311.307312,208.924286 290.309509,208.929474 269.311707,208.930176 
	C255.646469,208.930634 241.981049,208.890411 228.316101,208.954117 
	C222.269897,208.982300 218.097092,212.426743 217.349686,217.732605 
	C216.473053,223.956070 221.487488,228.888062 229.006409,228.912109 
	C249.170746,228.976562 269.335449,228.934860 290.500000,228.935394 
z"/>
<path fill="#FFFEFF" opacity="1.000000" stroke="none" 
	d="
M135.528931,244.990448 
	C135.972382,260.512573 135.769623,276.010284 135.987625,291.502045 
	C136.408676,321.420380 160.608688,345.572388 190.702866,345.892761 
	C216.692337,346.169464 242.686996,345.959747 268.679352,345.964996 
	C270.643402,345.965393 272.607452,345.965088 274.573151,345.965088 
	C274.250183,359.139832 263.830841,368.642975 249.879623,368.717926 
	C228.719757,368.831573 207.558289,368.827118 186.398895,368.677399 
	C182.627853,368.650757 179.871002,369.642395 177.194229,372.400513 
	C167.796722,382.083679 158.140213,391.515472 148.279358,401.234253 
	C147.890121,399.209808 147.803543,396.993805 147.668243,393.871735 
	C147.637177,386.304871 147.630905,379.643860 147.684143,372.983307 
	C147.705826,370.272095 146.979416,368.804291 143.749374,368.666077 
	C135.827850,368.327057 127.925667,367.536560 120.015694,366.927704 
	C120.015694,366.927704 119.994949,366.987915 120.013420,366.679962 
	C119.687820,366.146454 119.343750,365.920868 118.999680,365.695282 
	C110.054047,359.673828 106.737770,351.209442 106.894676,340.548523 
	C107.229599,317.791412 107.526474,295.009369 106.814423,272.269623 
	C106.324936,256.637695 116.862411,242.978180 135.528931,244.990448 
z"/>
<path fill="#C353FF" opacity="1.000000" stroke="none" 
	d="
M120.152451,367.234863 
	C127.925667,367.536560 135.827850,368.327057 143.749374,368.666077 
	C146.979416,368.804291 147.705826,370.272095 147.684143,372.983307 
	C147.630905,379.643860 147.637177,386.304871 147.547729,393.421570 
	C145.004684,391.778595 142.387451,389.827301 140.089874,387.553070 
	C133.420959,380.952118 126.880219,374.221649 120.152451,367.234863 
z"/>
<path fill="#C252FF" opacity="1.000000" stroke="none" 
	d="
M402.926636,129.729309 
	C402.576691,129.573746 402.170563,129.078934 401.612427,128.288864 
	C401.930420,128.459076 402.400452,128.924576 402.926636,129.729309 
z"/>
<path fill="#C353FF" opacity="1.000000" stroke="none" 
	d="
M119.116089,365.958588 
	C119.343750,365.920868 119.687820,366.146454 120.045204,366.681610 
	C119.783180,366.734772 119.507835,366.478333 119.116089,365.958588 
z"/>
<path fill="#C356FF" opacity="1.000000" stroke="none" 
	d="
M275.000061,155.368439 
	C294.145508,155.368546 312.790985,155.351273 331.436401,155.375122 
	C340.805054,155.387115 345.741638,159.037933 345.567322,165.721542 
	C345.396942,172.254135 340.593933,175.690582 331.523010,175.693588 
	C298.061096,175.704651 264.599182,175.697998 231.137283,175.697876 
	C230.637848,175.697876 230.138184,175.705566 229.639023,175.693359 
	C222.026978,175.507278 217.251236,171.608643 217.213074,165.552689 
	C217.174835,159.490143 221.955154,155.434616 229.551285,155.394058 
	C244.533813,155.314026 259.517090,155.368942 275.000061,155.368439 
z"/>
<path fill="#C354FF" opacity="1.000000" stroke="none" 
	d="
M293.000000,262.103699 
	C306.999756,262.104736 320.499878,262.043610 333.999084,262.131470 
	C341.339935,262.179230 346.005341,266.756348 345.415527,273.025757 
	C344.886017,278.654144 340.816437,282.078979 334.303650,282.092377 
	C311.637512,282.138947 288.971191,282.112030 266.304962,282.112549 
	C253.971863,282.112823 241.638687,282.136871 229.305695,282.102478 
	C221.954239,282.081970 217.390961,278.339417 217.240997,272.327301 
	C217.091324,266.325745 222.035263,262.131897 229.501236,262.117950 
	C250.500763,262.078766 271.500397,262.103851 293.000000,262.103699 
z"/>
<path fill="#C353FF" opacity="1.000000" stroke="none" 
	d="
M290.000000,228.935364 
	C269.335449,228.934860 249.170746,228.976562 229.006409,228.912109 
	C221.487488,228.888062 216.473053,223.956070 217.349686,217.732605 
	C218.097092,212.426743 222.269897,208.982300 228.316101,208.954117 
	C241.981049,208.890411 255.646469,208.930634 269.311707,208.930176 
	C290.309509,208.929474 311.307312,208.924286 332.305115,208.933014 
	C340.855927,208.936569 345.597717,212.576447 345.501801,219.020386 
	C345.406647,225.412628 340.633545,228.927002 331.995667,228.932663 
	C318.163788,228.941727 304.331879,228.935287 290.000000,228.935364 
z"/>
</svg>